<svg
     viewBox="0 0 1024 1024" version="1.1"
     xmlns="http://www.w3.org/2000/svg"
     width="20" height="20">
    <path
            d="M737.007 537.364c-1.092-104.007 84.833-153.888 88.595-156.316-48.181-70.512-123.305-80.221-150.126-81.435-63.958-6.432-124.761 37.622-157.165 37.622-32.404 0-82.405-36.652-135.441-35.681-69.663 1.092-133.863 40.535-169.787 102.915-72.453 125.732-18.569 311.903 52.065 413.727 34.467 49.881 75.609 105.828 129.616 103.887 51.943-2.063 71.604-33.618 134.47-33.618s80.464 33.618 135.563 32.646c55.948-1.092 91.387-50.851 125.611-100.852 39.564-57.89 55.948-113.959 56.798-116.63-1.214-0.729-109.105-41.991-110.197-166.267zM633.605 232.258c28.641-34.71 47.938-83.012 42.72-131.072-41.264 1.699-91.265 27.428-120.878 62.138-26.457 30.826-49.881 79.978-43.569 127.067 45.997 3.641 93.085-23.423 121.727-58.132z"
            fill="">
    </path>
</svg>
